<svg fill="none" xmlns="http://www.w3.org/2000/svg" viewBox="0 0 60 59">
<style>
    .rotate {
    transform-origin: center;
    animation: rotation 7s linear infinite;
    }
    @keyframes rotation {
    from {
        transform: rotate(0deg);
    }
    to {
        transform: rotate(-360deg);
    }
    }
</style>
<path class="rotate" d="m10.21 7.25 2.23.3.2-.15.19-2.16 1.21-.92-.32 3.6 1.07 1.4-1.12.87-1.08-1.41-3.7-.52 1.32-1.01ZM18.37 2.26c1.52-.63 3-.41 3.58.89l.07.18c.54 1.3-.37 2.52-1.89 3.15l-.31.13c-1.56.65-3.1.44-3.64-.85l-.08-.19c-.54-1.29.4-2.53 2-3.18l.27-.13Zm-.92 2.76.07.18c.25.59.93.69 1.84.31l.25-.1c.9-.38 1.32-.93 1.07-1.52l-.08-.19c-.25-.6-.93-.69-1.83-.31l-.25.1c-.91.38-1.31.93-1.07 1.53ZM24.87.47l.26 2.28c.08.68.46 1 1.42.85h.26c1-.11 1.26-.48 1.18-1.15L27.73.16 29.14 0l.26 2.29c.19 1.61-.86 2.31-2.45 2.5h-.27c-1.58.18-2.77-.26-3-1.87L23.42.63l1.45-.16ZM36.46.73c1.65.36 2.7 1.21 2.44 2.4l-1.42-.31c.07-.33-.29-.71-1.28-.93H36c-1-.21-1.5 0-1.63.62l-.06.26c-.14.62.27 1 1.23 1.25l.19.05c1 .21 1.51 0 1.58-.32l1.42.31c-.25 1.14-1.6 1.53-3.25 1.17h-.2c-1.58-.35-2.71-1.28-2.39-2.73l.05-.26C33.27.76 34.68.42 36.26.76l.2-.03ZM44.87 4.07l-.06 5-1.26-.67v-1L40.91 6l-.79.56-1.21-.64 4.08-2.87 1.88 1.02Zm-3 1.28 1.68.89V4.45l-.24-.13-1.44 1.03ZM50 7.82l-.2 3.72.12.12 2-2 1 .95-3.16 3.12-1.33-1.3.2-3.73-.12-.11-2 2-1-.94 3.09-3.18L50 7.82ZM56.99 17.19c.72 1.53.69 2.88-.41 3.4l-.62-1.32c.29-.14.38-.66-.05-1.57l-.08-.19c-.42-.88-.94-1.18-1.49-.92l-.24.11c-.58.27-.67.85-.25 1.74l.09.18c.42.91.91 1.2 1.21 1.06l.61 1.32c-1.06.49-2.19-.34-2.9-1.87l-.09-.19c-.69-1.46-.63-2.92.71-3.55l.24-.11c1.37-.64 2.5.27 3.19 1.73l.08.18ZM59.08 23.66l-1.58.24.41 2.76 1.59-.24.21 1.4-4.39.66-.21-1.4 1.69-.25-.42-2.76-1.68.26-.22-1.41 4.39-.66.21 1.4ZM59.21 34.48l-4.72 1.63.2-1.41.92-.31.41-3-.79-.56.19-1.36 4.08 2.88-.29 2.13ZM57 32.11 56.73 34l1.69-.59v-.26L57 32.11ZM57.38 40.58l-3.59 1-.07.16 2.56 1.18-.57 1.23-4-1.87.78-1.69 3.59-1 .07-.15-2.55-1.19.57-1.23 4 1.87-.79 1.69ZM52.27 48.73c-1.09 1.24-2.35 1.7-3.24.92l1-1.09c.24.2.74.11 1.38-.62l.23-.25c.62-.7.65-1.29.21-1.69l-.2-.17c-.48-.42-1-.3-1.65.41l-.22.25c-.64.72-.71 1.25-.4 1.53l-1 1.11L47 47.9l.81-.91.34.3.17-.19a2.45 2.45 0 0 1 .68-1.55l.22-.25c1-1.09 2.26-1.55 3.37-.56l.2.17c1.11 1 .76 2.39-.28 3.57l-.24.25ZM44.09 55.22l-.59-.92 3.11-2-.32-.49-2.78 1.81-.55-.85 2.78-1.81-.37-.56-3.16 2.03-.6-.92 4.32-2.82 2.42 3.73-4.26 2.8ZM33.97 58.52l-.25-1.1 2.13-.5-.76-3.23 1.38-.33.76 3.23 2.14-.51.26 1.1-5.66 1.34ZM30.36 58.73v-1.6l-2.78-.08-.05 1.6h-1.42l.12-4.43h1.42v1.71l2.78.07v-1.71h1.42l-.12 4.44h-1.37ZM18.81 56.73l.3-1 3.56 1.05.17-.56-3.19-.94.29-1 3.18.93.19-.63-3.6-1.06.31-1.05 4.95 1.45-1.25 4.27-4.91-1.46ZM11.62 52.64c-1.35-1-2-2.22-1.22-3.2l1.16.87c-.19.27 0 .77.78 1.38l.16.12c.79.59 1.38.6 1.75.11l.16-.21c.38-.51.19-1.06-.59-1.65l-.16-.12c-.81-.61-1.38-.63-1.57-.37l-1.16-.87c.7-.94 2.09-.73 3.44.29l.16.12c1.3 1 1.94 2.29 1 3.47l-.16.21c-.9 1.21-2.33.94-3.62 0l-.13-.15ZM5.6 46.54c-1-1.32-1.14-2.84 0-3.68l.16-.12c1.13-.84 2.54-.25 3.53 1.07l.2.27c1 1.35 1.18 2.89.06 3.73l-.16.12c-1.13.84-2.56.23-3.57-1.12l-.22-.27Zm2.9.23.16-.12c.51-.39.44-1.07-.15-1.86l-.16-.21c-.59-.79-1.22-1.06-1.74-.67l-.16.11c-.52.39-.44 1.07.15 1.86l.16.22c.59.78 1.22 1.05 1.74.63v.04ZM2.31 40.64l3.08-1.21-1.18-3.12 1.05-.41L7 40.35l-4.13 1.61-.56-1.32ZM.13 32.41c-.19-1.63.44-3 1.84-3.18h.2c1.39-.15 2.31 1.07 2.49 2.7v.34c.19 1.67-.44 3.09-1.83 3.25h-.2c-1.4.15-2.32-1.1-2.51-2.77l.01-.34Zm2.38 1.66h.2c.63-.07.92-.7.81-1.67v-.27c-.11-1-.53-1.52-1.16-1.45h-.2c-.65.07-.92.7-.81 1.67v.27c.11.96.51 1.52 1.16 1.45ZM.7 23.06a1.42 1.42 0 0 1 1.62-1.35h.19a1.31 1.31 0 0 1 1.07 1.05l1.8-.73-.28 1.59-1.66.68-.31 1.73 1.49.27-.25 1.4L0 26.91l.7-3.85Zm1.39 2.83.38-2.12c.07-.38 0-.56-.27-.6h-.07c-.22 0-.41.09-.48.48l-.38 2.11.82.13ZM2.88 16.73c.7-1.43 1.56-2.14 2.53-1.68h.08l-.59 1.21h-.08c-.39-.19-.68.25-1 .91l-.08.18c-.35.71-.49 1.18-.29 1.28.25.12.41-.14 1.2-1.5.79-1.36 1.46-1.86 2.19-1.51h.06c.78.38.85 1.43.09 3l-.08.19c-.8 1.64-1.67 2.24-2.64 1.77h-.06l.59-1.21h.06c.44.21.72-.2 1.11-1l.09-.19c.35-.71.5-1.19.27-1.29h-.06c-.24-.12-.46.25-1.16 1.5s-1.43 1.89-2.2 1.51c-.83-.4-.82-1.53-.11-3l.08-.17ZM7.21 10.29l1.89 2.24-.56.69-2.57-1.41 1.24-1.52Zm2.88 3.59v.05a.63.63 0 0 1-.9.1.64.64 0 0 1-.08-.9.63.63 0 0 1 .9-.11.62.62 0 0 1 .07.86h.01Z" fill="#231F20"/><path d="m34.977 20-6.328 6.043a8.46 8.46 0 0 0-1.957 2.768A8.214 8.214 0 0 0 26 32.095a8.63 8.63 0 0 0 2.918 5.633A9.222 9.222 0 0 0 35 40c2.25 0 4.418-.81 6.082-2.272A8.63 8.63 0 0 0 44 32.095a8.25 8.25 0 0 0-.69-3.282 8.49 8.49 0 0 0-1.95-2.77L34.977 20Z" fill="#C4C4C4"/><path d="M30.004 22.124v15.774a6.747 6.747 0 0 1-2.56-.473 6.685 6.685 0 0 1-2.183-1.405 6.596 6.596 0 0 1-1.472-2.124 6.53 6.53 0 0 1-.538-2.518 6.327 6.327 0 0 1 .51-2.499 6.39 6.39 0 0 1 1.458-2.103l4.785-4.652Zm0-3.124-6.358 6.18a8.698 8.698 0 0 0-1.953 2.836A8.612 8.612 0 0 0 21 31.378a8.849 8.849 0 0 0 2.732 6.112A9.062 9.062 0 0 0 30 40c2.34 0 4.588-.9 6.268-2.51A8.849 8.849 0 0 0 39 31.378a8.636 8.636 0 0 0-.69-3.36 8.722 8.722 0 0 0-1.948-2.838L30.004 19Z" fill="#000"/></svg>